/* XPM */
static char *flarq_small[] = {
/* columns rows colors chars-per-pixel */
"32 32 185 2",
"   c #7FE424B918D9",
".  c #7BE6369123D5",
"X  c #6EE349F84CCB",
"o  c #7B3846554A0B",
"O  c #73B8446850F7",
"+  c #78A651F053ED",
"@  c #80C43A3120CE",
"#  c #8E9A40F12AFD",
"$  c #84E63FFA3281",
"%  c #8B0843783311",
"&  c #907A435E31A8",
"*  c #9C8A49E936AA",
"=  c #92844DE23D9B",
"-  c #9F7950C03455",
";  c #967851693C05",
":  c #A7DC4BD13E43",
">  c #A51051843A68",
",  c #A32857DC3D48",
"<  c #AD4D59FA3C5E",
"1  c #B3C75AF63C18",
"2  c #BD535C7D3E60",
"3  c #B57F60083DFD",
"4  c #9D955A0D4421",
"5  c #80A055DC5628",
"6  c #B3735B774287",
"7  c #A7B2610544E3",
"8  c #ACC362914667",
"9  c #B22E65F4423A",
"0  c #B14668B54F51",
"q  c #AE5F62985192",
"w  c #B8206EEE5032",
"e  c #B3E877775B29",
"r  c #859B5E9764BA",
"t  c #A43B6EA068C7",
"y  c #BF9F78A06745",
"u  c #A4C273C67C32",
"i  c #CAD16CB74313",
"p  c #CC3E6B6C48C5",
"a  c #C939729F4A77",
"s  c #D43371ED4573",
"d  c #D5A676454B70",
"f  c #DB797D1D4CD9",
"g  c #C6606C735008",
"h  c #CDEE76F855DE",
"j  c #DE517DEC51CC",
"k  c #D5787ECE5C75",
"l  c #DE0E82C452D8",
"z  c #DF0B8A975456",
"x  c #DB0A83A35A7C",
"c  c #E15F85CD4F38",
"v  c #E48E851054FD",
"b  c #E5A08BD1542D",
"n  c #E9D78C1A55F0",
"m  c #E4098B335B1D",
"M  c #EA3A8D305C98",
"N  c #E5A691F65BFD",
"B  c #ECD093D45B27",
"V  c #ECAB991C5F6D",
"C  c #F2099B705E5E",
"Z  c #F813A2615F40",
"A  c #CFE5895664B6",
"S  c #DF3283B962AA",
"D  c #D1088984675E",
"F  c #DDF892405FE2",
"G  c #D2F68FB67023",
"H  c #D1DA8E2D792C",
"J  c #D8ED91C87699",
"K  c #DE8F992577E5",
"L  c #D5F396D97AA7",
"P  c #E67D900F61C0",
"I  c #E61794046330",
"U  c #EC1B93AD62E5",
"Y  c #EEB79A2D6485",
"T  c #E3AC935C6B00",
"R  c #EC219BC16A4F",
"E  c #F2D395DA61CC",
"W  c #F5919C4064B3",
"Q  c #FA069F1164D0",
"!  c #F5CB9E886994",
"~  c #FB7E9F336B8C",
"^  c #EC2F9CDB728C",
"/  c #E52FA0067FC7",
"(  c #EE0DA25A6C57",
")  c #F740A1FA6641",
"_  c #FA30A110660A",
"`  c #F67DA1ED6B89",
"'  c #F9E3A1A16981",
"]  c #F7EAAF1C6FA6",
"[  c #E465A09777B9",
"{  c #ED05A2D2758A",
"}  c #EEBDA94076E6",
"|  c #EE7DAAF2795F",
" . c #F526A4B47265",
".. c #F4F0AA257550",
"X. c #FAF6A9DB74F7",
"o. c #F959A7CC783C",
"O. c #F330AC337A25",
"+. c #FA6CABAF79EA",
"@. c #F7B8B3457EC8",
"#. c #F90EB0A57B50",
"$. c #A6AE82BC88E3",
"%. c #A2B3887D8EAA",
"&. c #AB458B0C8CFA",
"*. c #A5738E989169",
"=. c #ADC18D0790BB",
"-. c #BEAF9CCFA1AE",
";. c #BB30A11DA18C",
":. c #DA60A005887A",
">. c #DF9AA5D587BD",
",. c #D9FBA7319104",
"<. c #DCC4A9839371",
"1. c #DE1FAA129C8F",
"2. c #F289ADC182CB",
"3. c #EEBBB29B8B9C",
"4. c #F6EDB40B84C7",
"5. c #F89BB41E84B6",
"6. c #F42CB60D8B36",
"7. c #F34BB861887C",
"8. c #FA8AB9EA8CD4",
"9. c #E252AF4A9382",
"0. c #EFFBB7439573",
"q. c #EB25BB8F9A1B",
"w. c #F257B33A90B4",
"e. c #F579BABD9574",
"r. c #F7D2BCE09B66",
"t. c #D9A4B56BA6F3",
"y. c #C271ADDEB0CE",
"u. c #CD49ACF8B5A2",
"i. c #C1D0B4AFB5FF",
"p. c #C1A7B54EBF86",
"a. c #CF6DBB30BF01",
"s. c #DDA1BC37B3D9",
"d. c #F93BC2568FFD",
"f. c #F624C2E4919C",
"g. c #F66CC16D9DA1",
"h. c #F928C5C89EE5",
"j. c #DF70C28DBB79",
"k. c #DC56C852BD5C",
"l. c #F8EEC527A435",
"z. c #FD63CD8AA494",
"x. c #FC4FCEC9AAC5",
"c. c #FC5ED311A98A",
"v. c #FA29CFFAB2D6",
"b. c #FC56D44EB2C3",
"n. c #FFC0D984B5A6",
"m. c #FA48D7C0BB2B",
"M. c #FE49DAA0BF5E",
"N. c #C7A7BA03C0A5",
"B. c #CD79BB45C1DE",
"V. c #D378BCFDC23E",
"C. c #CFBEC44DCC98",
"Z. c #D400C0EDC380",
"A. c #D910C5D4C5D3",
"S. c #D2DDC48ECE15",
"D. c #DF2CC794D304",
"F. c #DCADD274D553",
"G. c #E05FDBC5DDCC",
"H. c #E297C6E1C2A0",
"J. c #E356D469D46A",
"K. c #E35FD5CDDC74",
"L. c #E1BED8BEDC96",
"P. c #F1ECE15FDF00",
"I. c #E25BD7CEE200",
"U. c #E427DC1AE1CF",
"Y. c #EE4BDFF5ECF3",
"T. c #E6A3E1BAE44E",
"R. c #EC44E3E9E6B3",
"E. c #EC83E7ACEBEE",
"W. c #EB9CEB27EE26",
"Q. c #F34BEBD2ECC9",
"!. c #EEC0E82FF58C",
"~. c #EEA2ED7BF588",
"^. c #EB41EF9AFABD",
"/. c #F2F5EF89FB53",
"(. c #EC84F215F763",
"). c #F04AFBBAF860",
"_. c #E63BF1D1FBB7",
"`. c #EBF1F371FBA3",
"'. c #ED98F9DEFC44",
"]. c #F615F439F5CF",
"[. c #F398F554FBDE",
"{. c #FB11F570FA86",
"}. c #F643FB68FCA6",
"|. c #FB6DFC5FFDBA",
" X c None",
/* pixels */
" X X X X X X X X X X X X X X X X X X X X X X X X X X X X X X X X",
" X X X X X X X X X X X X X X X X X X X X X X X X X X X X X X X X",
" X X X X X X X X X X X X X X X X X X X X X X X X X X X X X X X X",
" X X X X X X X X X X X X X X X X X X X X X X X X X X X X X X X X",
" X X X X X X X X X X X X X X X X X X X X X X X X X X X X X X X X",
" X X X X X X X X X X X X X X X X X X X X X X X X X X X X X X X X",
" X X X X X X X X X X X X X X X X X X X X X X X X X X X X X X X X",
" X X X X X X X X X X X X X X X X X@ w $  X X X X X X X X X Xu u.",
" X X X X X X X X X X X X X X% $ y J 6.L 4 .  X X X X XX r y.J.].",
"Z.=.&.$. X X X X X X X7 e L >.q.c.n.H.M.e.D 8  X X;.A.F.L.S.].|.",
"W.F.Q.R.G.B.o  X X> x Y  .4.2.{ X.+.e.v.n.c.3.T A k.).|.{.S.R.|.",
"T.C.{.|.|.P.q p R T U U V E l l v C  ...5.7.7.] W 1.~.}.|.L.F.|.",
"L.I.`.|.{.t.^ 8.x.x.h.g.7.X._ _ V n b W  .! Q Q W J R.'.|.R.p.Q.",
"y.K.[.|.Q.<.} x.r.5.4.5.+.] ' Q Q o.N c U Q Q ~ _ Y j./.{.].C.T.",
";.T.`.'.J.K X.O.` _ _ Q Q Q ` Z ) g.x.( v V V N W C ,.E.[.|.U.;.",
"U.`.`.`.s.I _ Q Q _ _ _ ) ) _ Q ) @.b.m.6.v i P ` Q >.T.`.}.^.C.",
"V./.^.~.9.! Q ' _ _ Q ) ) ) ' ! m B 4.b.M.l.T B Q Q ^ s.`._.(.F.",
"U._.`.U./ Q ' ' ' _ _ Q Q ) ` @.} z U o.f.c.g.F B ' ! :.E.^.(.(.",
"[._.[.s.N _ ' Q Q _ _ Q Q ) Y O.d...n n ` ..+.W U ' ) F H.[.!.Y.",
"D.J.A.H Q _ Q Q _ _ _ ) _ Q M l R ` Z B m U _ m < 3 9 , t V.*.%.",
"O 5 + = h n E Q ` ) Q ` ' ~ ~ E v v E ' Q l 1 ;  X X X X X X X X",
" X X X X% 1 d v B V ' ) C B C Q _ B m N E k    X X X X X X X X X",
" X X X X X X1 U f j n C ) V m m M W ) B a &  X X X X X X X X X X",
" X X X X X X X: 2 U f s M ! _ W M v f a #  X X X X X X X X X X X",
" X X X X X X X X Xw 6 x U m N N I x :  X X X X X X X X X X X X X",
" X X X X X X X X X X X- x S g * = ;  X X X X X X X X X X X X X X",
" X X X X X X X X X X X X X X X X X X X X X X X X X X X X X X X X",
" X X X X X X X X X X X X X X X X X X X X X X X X X X X X X X X X",
" X X X X X X X X X X X X X X X X X X X X X X X X X X X X X X X X",
" X X X X X X X X X X X X X X X X X X X X X X X X X X X X X X X X",
" X X X X X X X X X X X X X X X X X X X X X X X X X X X X X X X X",
" X X X X X X X X X X X X X X X X X X X X X X X X X X X X X X X X"
};
