/* XPM */
static char * fldigi_small_xpm[] = {
"32 32 154 2",
"  	c None",
". 	c #000000",
"+ 	c #808080",
"@ 	c #070707",
"# 	c #141414",
"$ 	c #8C8C8C",
"% 	c #FD8686",
"& 	c #FB8C8C",
"* 	c #FF8080",
"= 	c #C78686",
"- 	c #FE8080",
"; 	c #C28080",
"> 	c #202020",
", 	c #3F3F3F",
"' 	c #BDBDBD",
") 	c #D5D5D5",
"! 	c #CFCFCF",
"~ 	c #D2D2D2",
"{ 	c #B7B7B7",
"] 	c #DEDEDE",
"^ 	c #CBCBCB",
"/ 	c #777777",
"( 	c #222222",
"_ 	c #363636",
": 	c #939393",
"< 	c #ABABAB",
"[ 	c #E3E3E3",
"} 	c #E5E5E5",
"| 	c #D6D6D6",
"1 	c #898989",
"2 	c #666666",
"3 	c #020202",
"4 	c #303030",
"5 	c #A1A1A1",
"6 	c #BEBEBE",
"7 	c #CECECE",
"8 	c #BBBBBB",
"9 	c #DCDCDC",
"0 	c #A7A7A7",
"a 	c #828282",
"b 	c #040404",
"c 	c #010101",
"d 	c #090909",
"e 	c #484848",
"f 	c #9E9E9E",
"g 	c #CCCCCC",
"h 	c #E0E0E0",
"i 	c #B5B5B5",
"j 	c #7F7F7F",
"k 	c #161616",
"l 	c #888888",
"m 	c #CACACA",
"n 	c #ACACAC",
"o 	c #686868",
"p 	c #8D8D8D",
"q 	c #B9B9B9",
"r 	c #BABABA",
"s 	c #494949",
"t 	c #080808",
"u 	c #030303",
"v 	c #818181",
"w 	c #101010",
"x 	c #050505",
"y 	c #060606",
"z 	c #7C7C7C",
"A 	c #181818",
"B 	c #DADADA",
"C 	c #989898",
"D 	c #A8A8A8",
"E 	c #4B4B4B",
"F 	c #4A4A4A",
"G 	c #C0C0C0",
"H 	c #D3D3D3",
"I 	c #D8D8D8",
"J 	c #E4E4E4",
"K 	c #E1E1E1",
"L 	c #E2E2E2",
"M 	c #8E8E8E",
"N 	c #0A0A0A",
"O 	c #606060",
"P 	c #A0A0A0",
"Q 	c #DFDFDF",
"R 	c #EAEAEA",
"S 	c #DBDBDB",
"T 	c #393939",
"U 	c #B1B1B1",
"V 	c #999999",
"W 	c #C8C8C8",
"X 	c #555555",
"Y 	c #323232",
"Z 	c #E6E6E6",
"` 	c #D4D4D4",
" .	c #949494",
"..	c #E8E8E8",
"+.	c #DDDDDD",
"@.	c #5A5A5A",
"#.	c #B6B6B6",
"$.	c #E7E7E7",
"%.	c #909090",
"&.	c #585858",
"*.	c #9D9D9D",
"=.	c #969696",
"-.	c #0B0B0B",
";.	c #0D0D0D",
">.	c #AEAEAE",
",.	c #CDCDCD",
"'.	c #D7D7D7",
").	c #EDEDED",
"!.	c #7E7E7E",
"~.	c #0C0C0C",
"{.	c #505050",
"].	c #A6A6A6",
"^.	c #D1D1D1",
"/.	c #6C6C6C",
"(.	c #A2A2A2",
"_.	c #353535",
":.	c #5E5E5E",
"<.	c #151515",
"[.	c #5B5B5B",
"}.	c #5C5C5C",
"|.	c #6D6D6D",
"1.	c #B4B4B4",
"2.	c #292929",
"3.	c #0E0E0E",
"4.	c #C4C4C4",
"5.	c #C3C3C3",
"6.	c #787878",
"7.	c #3C3C3C",
"8.	c #C2C2C2",
"9.	c #C1C1C1",
"0.	c #E9E9E9",
"a.	c #0F0F0F",
"b.	c #C9C9C9",
"c.	c #979797",
"d.	c #121212",
"e.	c #545454",
"f.	c #B8B8B8",
"g.	c #D9D9D9",
"h.	c #BCBCBC",
"i.	c #919191",
"j.	c #5F5F5F",
"k.	c #9F9F9F",
"l.	c #C6C6C6",
"m.	c #9B9B9B",
"n.	c #111111",
"o.	c #959595",
"p.	c #515151",
"q.	c #838383",
"r.	c #626262",
"s.	c #424242",
"t.	c #5D5D5D",
"u.	c #A4A4A4",
"v.	c #1C1C1C",
"w.	c #131313",
". . . . . + @ . . . . . . . . . . . . . . . + . . . . . . . . . ",
". . . . . + # . . . . . . . . . . . . . . . + . . . . . . . . . ",
"$ $ $ $ $ $ $ $ $ $ $ $ $ $ % & & * * = $ $ $ $ $ $ $ $ $ $ $ $ ",
"+ + + + + + + + + + + + + + * * * - - ; + + + + + + + + + + + + ",
"> > > > > > > > > > > > , ' ) ! ~ { ] ^ / > > > ( > > > > > > > ",
". . . . . . . . . . . . _ : < ~ [ } | 1 2 3 . . . . . . . . . . ",
". . . . . . . . . . . . 4 5 6 7 ] 8 9 0 a . . b . . . . . . . . ",
". . . . . . . . . c d . e f g h h ~ | i j 3 . b . . . . . . . . ",
". . . 3 3 . . . . 3 3 . k l m n o p q r s . . . t . . . . . . . ",
". . . b b . . . . u . . . . v . . . . + . . . . w . . . . . . . ",
". . . b b . . . . . . . x ( a @ @ y y z u . . . # . . . . . . . ",
". . . . . . . . . . . . A 0 B C D 1 ^ ! E c . . y . . . . . . . ",
". . . . . . . . . 3 x . F G H I J K L 8 M u . N . . . . . . . . ",
". . . . . . . . . . d . O P 6 Q } R S r + @ d x . . . . . . . . ",
". . . . . . . . . . c . T U h ~ V W K W X d c . t . . . . . . . ",
". . . . . . . . . N t . Y H Z ` W  ...+./ c . b . . . . . . . . ",
". . . . . . . . . 3 N . @.#.` R $.} ` #.%.t . y . . . . . . . . ",
". . . . . . . . . 3 x t &.*.P h 9 R ) $ =.-.t ;.. . . . . . . . ",
". . . . . . . . . . t 3 &.>.,.'.).L S U !.~.3 . . . . . . . . . ",
". . . . . . . . . . 3 . {.].L ,.$.$.9 ^./.-.3 . y . . . . . . . ",
". . . 3 3 . . . . c . . @ w (.F _.e :.5 x . . . <.. . . . . . . ",
". . . c c . . . . u . . y X r [.}.s |.1.2.c . . 3.. . . . . . . ",
". . . . . . . . . . . . ( 4.| 5.$.>.] 8 6.y . c . . . . . . . . ",
". . . . . . . . . . 3 . 7.G 8.Q R Q h f p d . 3 . . . . . . . . ",
". . . . . . . . . . y . @.0 9.0.[ ..^.#.=.a.y @ . . . . . . . . ",
". . . . . . . . . b x . F b.'...Z '.[ r c.d.. . . . . . . . . . ",
". . . . . . . . . . c 3 e.f.) $.0.g.S h.i.d.c c . . . . . . . . ",
". . . . . . . . . . 3.@ j.k.] R } S Q l.m.n.y c . . . . . . . . ",
". . . . . . . . . . -.3 [.1.` 0.$...K 8.o.3.-.y . . . . . . . . ",
". . . . . . . . . 3 t . p.n L Z B g.| ` q.N c b u . . . . . . . ",
". . . . . . . . c y . . @ , n r.4 s.t.u.v.c . . w.. . . . . . . ",
". . . u u . . . . . . . . . l . . . . 1 . . . . k . . . . . . . "};
